<svg width="147" height="51" viewBox="0 0 147 51" fill="none" xmlns="http://www.w3.org/2000/svg">
<path d="M18.1582 8.66769L18.0157 8.83127C17.9379 8.96967 17.8084 9.18355 17.8084 9.48553C17.8084 9.7875 17.938 10.2027 18.3136 10.4795C18.3913 10.5424 18.482 10.6054 18.5727 10.6809C18.6763 10.7438 18.7929 10.7941 18.9225 10.857C19.039 10.9325 19.1815 10.9577 19.3111 10.9954L19.5183 11.0457C19.596 11.0457 19.6608 11.0457 19.7385 11.0709C20.3344 11.1212 21.0598 10.9702 21.6557 10.4795C21.7334 10.4166 21.7982 10.3537 21.8759 10.2908C21.9536 10.2027 21.9925 10.1524 22.0573 10.0895C22.122 10.0266 22.1738 9.95108 22.2386 9.88817L22.42 9.64911C22.6661 9.32197 22.8345 8.96966 23.0029 8.56703C23.3008 7.77435 23.4563 6.84327 23.2749 5.86185C23.1972 5.37114 23.0417 4.88043 22.8086 4.40231C22.5754 3.92418 22.2516 3.47122 21.85 3.06859L21.6946 2.91761L21.6557 2.87984C21.6557 2.87984 21.5909 2.81694 21.5909 2.82952L21.5132 2.76661C21.4096 2.67853 21.3059 2.60304 21.2023 2.51497C20.995 2.3514 20.8007 2.17525 20.5417 2.01168C20.2955 1.84811 20.0494 1.67196 19.7903 1.52098C19.5313 1.38257 19.2592 1.24415 19.0002 1.09317C17.8991 0.564711 16.6426 0.199835 15.3083 0.0614303C13.9741 -0.0769745 12.5362 0.0111066 11.1243 0.401157C9.7123 0.778624 8.31328 1.45806 7.06972 2.43948C6.74586 2.66596 6.47386 2.95535 6.17592 3.23216L5.95569 3.43347L5.74844 3.65996L5.38574 4.07517C5.13962 4.3394 4.89349 4.65396 4.64737 4.9811C4.51782 5.14467 4.40125 5.29564 4.27171 5.45921C4.15512 5.62278 4.05148 5.78635 3.93489 5.94992C3.02814 7.25847 2.25092 8.70544 1.62914 10.2656C0.385559 13.3735 -0.223267 16.9216 0.0746765 20.5957C0.37262 24.2697 1.69391 28.1199 4.28465 31.3409C5.58003 32.9389 7.18631 34.3607 9.01279 35.4931C10.8263 36.6381 12.8601 37.4811 14.9715 38.0598L15.7617 38.2737L15.8654 38.2989C15.8654 38.2989 15.8653 38.2989 16.0208 38.3367L16.2151 38.3744L16.5908 38.4499C17.096 38.5506 17.6012 38.6512 18.1193 38.7519C18.6634 38.8399 19.2204 38.9028 19.7774 38.9783L20.6194 39.0916L21.4355 39.1545C21.9795 39.1922 22.5366 39.2426 23.0806 39.2677C23.6247 39.2803 24.1817 39.2929 24.7387 39.3055C25.0107 39.3055 25.2957 39.3181 25.5677 39.3181L26.3968 39.2929C26.9538 39.2803 27.4978 39.2552 28.0549 39.2426C32.4851 38.9784 36.9412 38.3241 41.3843 37.3552C45.8145 36.3738 50.2447 35.1408 54.6619 33.7819C59.0792 32.4104 63.4964 30.8628 67.9137 29.3026C72.3309 27.7298 76.7482 26.0815 81.2172 24.5717C83.4453 23.8167 85.6863 23.087 87.9402 22.4453C89.0672 22.1307 90.1942 21.8413 91.3341 21.6022L92.1891 21.4261L92.3834 21.3884L92.6036 21.3506L93.044 21.2751L93.9249 21.1241C94.2228 21.0738 94.4949 21.0486 94.7798 20.9983C97.0727 20.6837 99.4173 20.495 101.723 20.5705C102.876 20.5957 104.029 20.6963 105.169 20.8473C106.309 21.0109 107.423 21.2625 108.511 21.5897C110.687 22.2439 112.721 23.3009 114.353 24.7982C115.998 26.2829 117.177 28.2205 117.812 30.3218C118.459 32.423 118.524 34.6752 118.187 36.8519C117.838 39.0287 117.073 41.1299 115.946 43.0298C114.819 44.9172 113.317 46.6032 111.542 47.8866C109.767 49.17 107.682 50.0256 105.506 50.2772L105.104 50.3275C105 50.3401 104.832 50.3401 104.702 50.3527C104.56 50.3527 104.417 50.3653 104.288 50.3653H103.899C103.368 50.3275 102.837 50.2395 102.319 50.1137C101.296 49.8494 100.324 49.3713 99.5468 48.6919C98.7696 48.025 98.1608 47.1694 97.811 46.2257C97.4483 45.2821 97.3188 44.2755 97.3577 43.2815C97.3965 42.2875 97.6426 41.3061 97.9924 40.375C98.3551 39.4439 98.8085 38.5506 99.3396 37.7075C100.415 36.0215 101.775 34.5368 103.226 33.2031C103.588 32.8634 103.964 32.5488 104.34 32.2217C104.728 31.9071 105.117 31.5926 105.493 31.278C105.881 30.9509 106.27 30.6615 106.658 30.3721C107.047 30.0827 107.423 29.7807 107.824 29.5039C109.392 28.3589 110.985 27.302 112.604 26.3835C115.83 24.5088 119.172 23.0995 122.488 22.3069C125.791 21.5016 129.094 21.3003 132.1 21.8539C135.105 22.3949 137.786 23.6154 139.885 25.2763C140.934 26.1067 141.828 27.0504 142.579 28.0318C143.318 29.0258 143.914 30.0701 144.341 31.127C145.209 33.2534 145.429 35.405 145.209 37.2923C145.105 38.2486 144.872 39.1293 144.587 39.9472C144.302 40.765 143.965 41.5074 143.577 42.1617C142.813 43.4828 141.958 44.5145 141.193 45.2821C140.429 46.0496 139.794 46.6032 139.354 46.9555C138.9 47.3078 138.667 47.484 138.667 47.484C138.603 47.5343 138.59 47.635 138.641 47.6979C138.693 47.7608 138.771 47.7734 138.836 47.7356C138.836 47.7356 139.095 47.5846 139.587 47.2826C140.079 46.9807 140.805 46.5151 141.686 45.7979C142.553 45.0807 143.577 44.1119 144.522 42.753C145.002 42.0736 145.455 41.3061 145.844 40.4379C146.232 39.5697 146.569 38.6009 146.763 37.544C147.165 35.4427 147.1 32.964 146.219 30.4853C145.792 29.2523 145.183 28.0066 144.38 26.8239C143.577 25.6412 142.566 24.5339 141.401 23.5399C139.056 21.5519 135.999 20.0295 132.579 19.4004C129.172 18.7335 125.441 18.8971 121.827 19.8156C118.2 20.7341 114.677 22.3824 111.361 24.4836C108.057 26.61 104.962 29.1894 102.086 32.121C100.661 33.6183 99.3525 35.2792 98.3033 37.1287C97.267 38.9783 96.5157 41.067 96.4768 43.2689C96.4638 44.3636 96.6452 45.4834 97.0856 46.5151C97.5131 47.5469 98.2256 48.478 99.0935 49.2077C99.9614 49.9501 101.037 50.4408 102.151 50.7428C102.708 50.8686 103.278 50.9692 103.86 50.9944H104.301C104.443 51.007 104.586 50.9944 104.715 50.9944C104.858 50.9944 104.974 50.9944 105.143 50.9692L105.57 50.9315C107.863 50.6924 110.078 49.8117 111.957 48.478C113.848 47.1568 115.428 45.4079 116.646 43.4576C117.864 41.5074 118.731 39.3181 119.159 37.0281C119.586 34.7381 119.56 32.3475 118.952 30.0324C118.356 27.7298 117.125 25.5405 115.35 23.8293C113.589 22.1055 111.387 20.8473 109.055 20.0421C107.889 19.6394 106.684 19.3249 105.48 19.0984C104.262 18.8845 103.044 18.7209 101.814 18.6454C99.3525 18.4693 96.9172 18.5699 94.469 18.809C93.8472 18.8593 93.2513 18.9348 92.6684 19.0103L92.2279 19.0606L92.0077 19.0858L91.7616 19.1235L90.8549 19.2745C89.6372 19.4759 88.4584 19.7401 87.2796 20.0169C84.922 20.5831 82.6162 21.2374 80.3234 21.9168C75.7637 23.326 71.2687 24.8107 66.8256 26.2954C62.3824 27.7801 57.9781 29.2019 53.6127 30.5105C49.2473 31.8316 44.8948 32.9892 40.5941 33.9077C36.2935 34.8388 32.0317 35.5182 27.8605 35.7825C27.3424 35.8076 26.8243 35.8202 26.3061 35.8454C25.788 35.8705 25.2698 35.8831 24.7646 35.8705C24.2464 35.8705 23.7412 35.8705 23.2361 35.8705C22.7309 35.8454 22.2257 35.8202 21.7205 35.795L20.9691 35.7573L20.2437 35.6818C19.7644 35.6315 19.2722 35.5686 18.7929 35.5182C18.2877 35.4301 17.7696 35.3421 17.2644 35.2414L16.8887 35.1785L16.6944 35.1408C16.7721 35.1534 16.6685 35.1408 16.6685 35.1408L16.5778 35.1156L15.8783 34.9394C14.0388 34.4739 12.3031 33.7819 10.7356 32.8634C9.18118 31.9449 7.79514 30.8125 6.66815 29.4913C4.41418 26.8491 3.17062 23.5651 2.78201 20.3314C2.3934 17.0852 2.83383 13.8768 3.84424 11.0332C4.34943 9.61137 4.99712 8.27764 5.74844 7.05716L6.03343 6.6042L6.33136 6.17641C6.52567 5.8996 6.71999 5.62279 6.96609 5.3334L7.31584 4.90559L7.4713 4.71686L7.63968 4.54071C7.87285 4.31423 8.08012 4.05001 8.3392 3.86128C10.2952 2.12493 12.873 1.36998 15.2047 1.49581C16.3706 1.55872 17.4846 1.82295 18.482 2.22558C18.7281 2.33882 18.9613 2.45205 19.2074 2.56529C19.4406 2.67853 19.6479 2.81694 19.8681 2.94276C20.0883 3.056 20.2955 3.23216 20.5158 3.38315C20.6194 3.45864 20.723 3.53414 20.8396 3.62221L20.9173 3.68513C20.9173 3.68513 20.9173 3.68513 20.9303 3.68513L20.9562 3.71028L21.0857 3.82351C21.4225 4.12549 21.7205 4.4778 21.9277 4.85527C22.1479 5.23274 22.3163 5.62278 22.407 6.02541C22.6143 6.83067 22.5495 7.63594 22.3422 8.32796C22.2257 8.66768 22.0832 9.00742 21.9018 9.28423C21.863 9.35972 21.8111 9.42263 21.7723 9.49812C21.7205 9.57362 21.6686 9.63653 21.6168 9.71202C21.565 9.77493 21.5002 9.863 21.4614 9.90075C21.4096 9.95107 21.3577 10.0014 21.293 10.0517C20.8525 10.467 20.2826 10.6431 19.7774 10.6305C19.7126 10.6305 19.6479 10.6305 19.5831 10.6305L19.4017 10.5928C19.2851 10.5676 19.1686 10.555 19.0649 10.5047C18.9613 10.467 18.8577 10.4292 18.767 10.3915C18.6763 10.3285 18.5727 10.2656 18.495 10.2153C18.1711 10.014 18.0286 9.69943 18.0157 9.44778C17.9898 9.18356 18.0804 9.00741 18.1323 8.88159L18.2488 8.70543C18.2488 8.70543 18.2489 8.62995 18.2359 8.61737C18.21 8.60479 18.1711 8.61736 18.1452 8.62994L18.1582 8.66769Z" fill="#3D861C"/>
</svg>
