<svg width="48" height="48" viewBox="0 0 48 48" fill="none" xmlns="http://www.w3.org/2000/svg">
<path opacity="0.2" d="M23.8044 46.7726C36.507 46.7726 46.8044 36.4751 46.8044 23.7726C46.8044 11.07 36.507 0.772583 23.8044 0.772583C11.1019 0.772583 0.804443 11.07 0.804443 23.7726C0.804443 36.4751 11.1019 46.7726 23.8044 46.7726Z" fill="#2D264B" stroke="#2D264B" stroke-width="1.5" stroke-linecap="round" stroke-linejoin="round"/>
<path d="M8.76581 32.6187C10.4081 32.6187 11.9832 31.9663 13.1444 30.805C14.3057 29.6438 14.9581 28.0687 14.9581 26.4264V21.1187C14.9581 19.4764 15.6105 17.9014 16.7718 16.7401C17.9331 15.5788 19.5081 14.9264 21.1504 14.9264C22.7927 14.9264 24.3678 14.274 25.5291 13.1127C26.6903 11.9515 27.3427 10.3764 27.3427 8.73411V1.04307C26.1894 0.86498 25.0077 0.772583 23.8044 0.772583C11.1019 0.772583 0.804443 11.07 0.804443 23.7726C0.804443 26.9073 1.43156 29.8956 2.56717 32.6187H8.76581Z" fill="white" stroke="#2D264B" stroke-width="1.5" stroke-linecap="round" stroke-linejoin="round"/>
<path d="M46.8018 23.4176C45.0307 22.4991 43.0668 22.0144 41.0718 22.0034H33.5348C31.8925 22.0034 30.3175 22.6558 29.1562 23.8171C27.9949 24.9784 27.3425 26.5534 27.3425 28.1957C27.3425 29.838 27.9949 31.4131 29.1562 32.5743C30.3175 33.7356 31.8925 34.388 33.5348 34.388C34.7079 34.388 35.8329 34.854 36.6624 35.6835C37.4919 36.513 37.9579 37.638 37.9579 38.8111V41.8896H37.9757C43.3171 37.7056 46.7615 31.2106 46.8041 23.9094V23.6358C46.8036 23.563 46.8029 23.4903 46.8018 23.4176Z" fill="white" stroke="#2D264B" stroke-width="1.5" stroke-linecap="round" stroke-linejoin="round"/>
</svg>
