<svg width="46" height="46" viewBox="0 0 46 46" fill="none" xmlns="http://www.w3.org/2000/svg">
<path d="M27.7062 15.2839H37.1189C38.7832 15.2839 40.3793 15.945 41.5561 17.1218C42.7329 18.2986 43.394 19.8947 43.394 21.559V33.1093C43.394 33.6616 42.9463 34.1093 42.394 34.1093H27.4727" fill="white"/>
<path d="M27.7062 15.2839H37.1189C38.7832 15.2839 40.3793 15.945 41.5561 17.1218C42.7329 18.2986 43.394 19.8947 43.394 21.559V33.1093C43.394 33.6616 42.9463 34.1093 42.394 34.1093H27.4727L27.7062 15.2839Z" stroke="#2D264B" stroke-width="1.5" stroke-linecap="round" stroke-linejoin="round"/>
<path d="M29.9066 32.9575C29.8556 33.4376 29.473 33.8159 28.9923 33.8614C25.1163 34.2279 21.0294 34.8368 16.8071 34.8368C12.5848 34.8368 8.49791 34.2279 4.62188 33.8614C4.14119 33.8159 3.75857 33.4376 3.7076 32.9575C3.32243 29.3298 2.71846 25.5061 2.71846 21.5562C2.71846 17.6063 3.32243 13.7826 3.7076 10.1549C3.75857 9.67477 4.14119 9.29646 4.62188 9.251C8.49791 8.88446 12.5848 8.27551 16.8071 8.27551C21.0294 8.27551 25.1163 8.88446 28.9923 9.251C29.473 9.29646 29.8556 9.67477 29.9066 10.1549C30.2918 13.7826 30.8958 17.6063 30.8958 21.5562C30.8958 25.5061 30.2918 29.3298 29.9066 32.9575Z" fill="#2D264B" fill-opacity="0.2" stroke="#2D264B" stroke-width="1.5"/>
<path d="M30.8963 40.3844C27.8324 40.3844 25.3487 37.9007 25.3487 34.8368C25.3487 31.773 27.8324 29.2892 30.8963 29.2892C33.9601 29.2892 36.4438 31.773 36.4438 34.8368C36.4438 37.9007 33.9601 40.3844 30.8963 40.3844Z" fill="white" stroke="#2D264B" stroke-width="1.5" stroke-linecap="round" stroke-linejoin="round"/>
<path d="M11.2908 40.3844C8.22696 40.3844 5.74322 37.9007 5.74322 34.8368C5.74322 31.773 8.22696 29.2892 11.2908 29.2892C14.3546 29.2892 16.8384 31.773 16.8384 34.8368C16.8384 37.9007 14.3546 40.3844 11.2908 40.3844Z" fill="white" stroke="#2D264B" stroke-width="1.5" stroke-linecap="round" stroke-linejoin="round"/>
</svg>
