<svg width="53" height="48" viewBox="0 0 53 48" fill="none" xmlns="http://www.w3.org/2000/svg">
<path d="M36.0578 24.0348C41.4343 24.0348 45.7928 19.6763 45.7928 14.2998C45.7928 8.92327 41.4343 4.56476 36.0578 4.56476C30.6813 4.56476 26.3228 8.92327 26.3228 14.2998C26.3228 19.6763 30.6813 24.0348 36.0578 24.0348Z" fill="#2D264B" fill-opacity="0.2"/>
<path d="M36.0581 24.0352C41.4346 24.0352 45.7931 19.6767 45.7931 14.3002C45.7931 10.1411 43.185 6.59126 39.5151 5.19684" stroke="#2D264B" stroke-width="1.5" stroke-linecap="round" stroke-linejoin="round"/>
<path d="M49.355 37.7104C54.1169 40.8819 50.9014 46.9989 45.18 46.9989H23.6946C17.9732 46.9989 14.7577 40.8819 19.5196 37.7104C23.7909 34.8656 28.9205 33.2076 34.4373 33.2076C39.9541 33.2076 45.0837 34.8656 49.355 37.7104Z" fill="#2D264B" fill-opacity="0.2"/>
<path d="M19.6769 22.1053C25.505 22.1053 30.2296 17.3807 30.2296 11.5526C30.2296 5.72458 25.505 1 19.6769 1C13.8488 1 9.12427 5.72458 9.12427 11.5526C9.12427 17.3807 13.8488 22.1053 19.6769 22.1053Z" fill="#2D264B" fill-opacity="0.2" stroke="#2D264B" stroke-width="1.5" stroke-linecap="round" stroke-linejoin="round"/>
<path d="M35.8407 36.9313C41.0025 40.3692 37.517 47 31.315 47H8.02501C1.82309 47 -1.66243 40.3692 3.4994 36.9313C8.12943 33.8476 13.6899 32.0504 19.67 32.0504C25.6502 32.0504 31.2106 33.8476 35.8407 36.9313Z" fill="#2D264B" fill-opacity="0.2" stroke="#2D264B" stroke-width="1.5"/>
<path d="M30.4177 46.2495C30.0035 46.2495 29.6677 46.5853 29.6677 46.9995C29.6677 47.4137 30.0035 47.7495 30.4177 47.7495V46.2495ZM49.3545 37.711L49.7702 37.0867V37.0867L49.3545 37.711ZM45.4788 34.7472C45.099 34.5819 44.6571 34.7558 44.4918 35.1356C44.3265 35.5154 44.5004 35.9573 44.8802 36.1226L45.4788 34.7472ZM30.4177 47.7495H45.1795V46.2495H30.4177V47.7495ZM45.1795 47.7495C48.3066 47.7495 50.8165 46.0741 51.8744 43.869C52.4052 42.7625 52.5708 41.5155 52.2391 40.3025C51.9062 39.0852 51.0901 37.9658 49.7702 37.0867L48.9387 38.3352C49.9998 39.0419 50.5675 39.8764 50.7922 40.6981C51.018 41.5241 50.915 42.4009 50.522 43.2202C49.7323 44.8664 47.7738 46.2495 45.1795 46.2495V47.7495ZM44.8802 36.1226C46.3031 36.7418 47.6604 37.4838 48.9387 38.3352L49.7702 37.0867C48.4188 36.1867 46.9836 35.4021 45.4788 34.7472L44.8802 36.1226Z" fill="#2D264B"/>
</svg>
