<svg width="29" height="26" viewBox="0 0 29 26" fill="none" xmlns="http://www.w3.org/2000/svg">
<path d="M0.481322 4.92479C0 6.71588 0 9.18679 0 13C0 18.4163 0 21.1244 1.37932 23.0229C1.82479 23.636 2.36398 24.1752 2.97711 24.6207C4.87558 26 7.58372 26 13 26H15.8889C21.3052 26 24.0133 26 25.9118 24.6207C26.5249 24.1752 27.0641 23.636 27.5096 23.0229C28.8889 21.1244 28.8889 18.4163 28.8889 13C28.8889 9.17408 28.8889 6.69943 28.4027 4.90691L25.3654 7.94424C23.0077 10.302 21.16 12.1497 19.5245 13.3975C17.8505 14.6747 16.2721 15.4251 14.4442 15.4251C12.6164 15.4251 11.038 14.6747 9.36396 13.3975C7.72848 12.1497 5.88078 10.302 3.52306 7.94422L0.698901 5.12006L0.481322 4.92479Z" fill="#2D264B"/>
<path d="M1.44444 2.88889L1.60167 3.01899L2.18959 3.54662L4.99652 6.35354C7.42558 8.78261 9.17194 10.5257 10.6782 11.675C12.1595 12.8051 13.2806 13.2585 14.4442 13.2585C15.6079 13.2585 16.729 12.8051 18.2103 11.675C19.7166 10.5257 21.4629 8.78261 23.892 6.35355L27.2256 3.0199L27.4071 2.83947C26.9616 2.22635 26.5249 1.82479 25.9118 1.37932C24.0133 0 21.3052 0 15.8889 0H13C7.58372 0 4.87558 0 2.97711 1.37932C2.36398 1.82479 1.88991 2.27576 1.44444 2.88889Z" fill="#2D264B"/>
</svg>
