<svg width="188" height="124" viewBox="0 0 188 124" fill="none" xmlns="http://www.w3.org/2000/svg">
<path d="M183.763 0.394828C183.41 0.0590218 182.86 0.0832963 182.524 0.436049C180.255 2.99827 177.366 4.96838 174.193 6.29776C171.02 7.6495 167.575 8.34248 164.113 8.67339C157.153 9.33116 150.087 8.67076 143.092 7.81726C136.078 6.95054 129.071 5.92274 121.999 5.11931C114.929 4.3606 107.776 3.85776 100.584 4.24092C96.9907 4.44812 93.3859 4.82989 89.8208 5.55109C88.0314 5.89836 86.2877 6.33454 84.4958 6.85179C83.6447 7.12107 82.8155 7.34538 81.9468 7.64618C81.0828 7.95587 80.1961 8.24345 79.3412 8.57092C72.5149 11.1503 66.0614 15.0223 60.6965 20.2011C58.0298 22.7992 55.6261 25.7119 53.6237 28.9016C51.6798 32.1175 50.0606 35.5711 48.9982 39.2106C47.8953 42.8371 47.3401 46.6317 47.2813 50.4295C47.2452 52.3263 47.3478 54.2303 47.5754 56.115C47.7804 57.9777 47.929 59.993 50.3188 61.2712C51.0659 61.674 52.0161 61.4662 52.5223 60.7671L52.5972 60.6723C53.394 59.5762 53.5628 58.7021 53.6289 57.8471C53.6463 57.4221 53.5969 57.0201 53.5117 56.6141L53.3454 55.3951C53.1253 53.7652 53.0169 52.134 53.0335 50.4835C53.01 48.8424 53.1788 47.2035 53.3745 45.5733C53.633 43.9557 53.9228 42.3333 54.3739 40.7404C55.209 37.5552 56.5465 34.494 58.1813 31.6171C59.825 28.7357 61.8377 26.0467 64.135 23.6049C68.7566 18.73 74.5353 14.9016 80.8048 12.1363C81.5878 11.7784 82.3716 11.4875 83.1594 11.1609C83.9518 10.8431 84.8161 10.5557 85.64 10.2555C87.217 9.71387 88.8971 9.19792 90.5696 8.79834C93.9187 7.96336 97.3515 7.40022 100.818 7.0782C107.756 6.42069 114.803 6.62958 121.827 7.20994C128.855 7.75447 135.87 8.73298 142.932 9.47391C146.465 9.84882 150.006 10.1521 153.568 10.3209C157.126 10.5032 160.717 10.5107 164.287 10.1696C167.861 9.81506 171.435 9.08928 174.818 7.73062C177.698 6.5746 180.38 4.87971 182.677 2.76442C184.318 10.5006 184.867 18.4507 184.157 26.2722C183.422 34.6129 181.249 42.7825 177.939 50.4241C174.62 58.0702 170.158 65.1795 164.816 71.5387C159.483 77.8934 153.264 83.4891 146.435 88.1168C139.61 92.7311 132.138 96.3735 124.334 98.669C116.542 100.969 108.382 101.918 100.505 101.012C96.5638 100.566 92.7072 99.6713 89.0376 98.332C85.3592 96.9972 81.872 95.1816 78.6708 92.9602C75.4606 90.7433 72.5322 88.1341 69.8954 85.2174C68.5771 83.7703 67.3335 82.2059 66.1796 80.6629C65.6336 79.8642 65.0887 79.1549 64.5241 78.2983L64.3965 78.0941C72.1787 75.4052 80.3432 72.9132 88.5434 70.4029C100.509 66.753 112.533 63.04 123.525 58.6993C129.028 56.5423 134.247 54.2052 139.08 51.7519C143.899 49.2718 148.31 46.6311 152.187 43.916C156.065 41.201 159.4 38.4161 162.146 35.7321C164.897 33.057 167.05 30.4871 168.719 28.312C170.367 26.1148 171.54 24.3078 172.294 23.0422L173.435 21.1059C173.435 21.1059 173.004 21.7549 172.195 22.9808C171.382 24.1978 170.119 25.9388 168.372 28.0298C166.602 30.0988 164.341 32.5223 161.498 35.0196C158.656 37.5169 155.233 40.088 151.29 42.5445C147.352 45.0098 142.889 47.3739 138.03 49.5592C133.163 51.7267 127.913 53.7421 122.398 55.5906C111.358 59.2923 99.273 62.3397 87.1432 65.3653C75.0133 68.3908 62.8028 71.4129 51.4826 75.2251C45.8338 77.1423 40.3927 79.2226 35.3622 81.6201C30.318 83.9909 25.6707 86.6523 21.6168 89.5706C17.5356 92.458 14.0659 95.6156 11.3114 98.7425C8.54347 101.865 6.46355 104.926 4.96461 107.564C4.24234 108.914 3.60259 110.053 3.10157 111.2C2.85321 111.766 2.61781 112.292 2.39967 112.764C2.29962 113.007 2.19042 113.232 2.09901 113.448C2.02969 113.641 1.9558 113.825 1.89511 113.991C1.37433 115.361 1.08766 116.094 1.08766 116.094C1.06176 116.174 1.02265 116.273 0.996754 116.354C0.107387 119.106 1.61305 122.054 4.36955 122.952C7.12149 123.841 10.0692 122.336 10.9675 119.579C10.9675 119.579 11.2049 118.838 11.6583 117.447C11.7144 117.272 11.7748 117.083 11.8353 116.895C11.9005 116.737 11.9612 116.571 12.0397 116.396C12.1743 116.045 12.3264 115.663 12.4825 115.246C12.7816 114.428 13.2885 113.403 13.7946 112.31C14.8874 110.128 16.4321 107.579 18.5744 104.879C20.7121 102.171 23.4969 99.3435 26.9359 96.629C30.3567 93.879 34.4229 91.2467 38.9922 88.8054C43.5478 86.3373 48.6068 84.0826 53.9534 81.9498C54.2784 81.8163 54.6303 81.6915 54.9598 81.5669L56.438 83.6965C57.0791 84.5925 57.8507 85.5675 58.5502 86.4896C60.0113 88.3019 61.4981 90.011 63.114 91.6649C66.332 94.9461 69.9219 97.9009 73.8283 100.378C77.7257 102.86 81.9529 104.846 86.3387 106.244C90.7202 107.655 95.2652 108.51 99.8085 108.838C108.918 109.515 117.98 108.045 126.4 105.197C134.846 102.335 142.704 98.089 149.786 92.8813C156.868 87.6737 163.196 81.4819 168.55 74.5769C173.904 67.6719 178.287 60.0178 181.44 51.8951C184.584 43.7769 186.501 35.1765 186.919 26.504C187.364 17.8402 186.333 9.14885 184.063 0.84753C184.017 0.691536 183.93 0.544955 183.817 0.434457L183.763 0.394828Z" fill="white" fill-opacity="0.2"/>
</svg>
