<svg width="26" height="26" viewBox="0 0 26 26" fill="none" xmlns="http://www.w3.org/2000/svg">
<path d="M7.82417 0.967771C6.41988 -0.32259 4.26136 -0.32259 2.85707 0.967771C2.79955 1.02062 2.73816 1.08203 2.65843 1.16177L1.46049 2.35971C0.255048 3.56515 -0.250987 5.30291 0.118827 6.96707C2.21704 16.409 9.59099 23.783 19.0329 25.8812C20.6971 26.251 22.4348 25.7449 23.6403 24.5395L24.8381 23.3417C24.9179 23.2619 24.9794 23.2005 25.0322 23.1429C26.3226 21.7386 26.3226 19.5801 25.0322 18.1758C24.9794 18.1183 24.9179 18.0569 24.8381 17.9771L22.877 16.016C21.5154 14.6544 19.4592 14.265 17.694 15.0344C16.6834 15.4749 15.5062 15.252 14.7267 14.4724L11.5276 11.2733C10.748 10.4938 10.5251 9.31657 10.9656 8.30602C11.735 6.54084 11.3456 4.48459 9.98403 3.123L8.02282 1.16179C7.94309 1.08204 7.88168 1.02062 7.82417 0.967771Z" fill="#2D264B"/>
</svg>
