<svg width="156" height="71" viewBox="0 0 156 71" fill="none" xmlns="http://www.w3.org/2000/svg">
<path d="M136.416 24.2281L136.567 24.4064C136.649 24.5573 136.786 24.7904 136.786 25.1196C136.786 25.4488 136.649 25.9014 136.251 26.2031C136.169 26.2717 136.073 26.3403 135.977 26.4226C135.867 26.4911 135.744 26.546 135.607 26.6146C135.483 26.6969 135.332 26.7243 135.195 26.7654L134.976 26.8203C134.893 26.8203 134.825 26.8203 134.743 26.8477C134.112 26.9026 133.344 26.738 132.713 26.2031C132.63 26.1345 132.562 26.066 132.48 25.9974C132.397 25.9014 132.356 25.8465 132.287 25.7779C132.219 25.7094 132.164 25.6271 132.095 25.5585L131.903 25.2979C131.643 24.9413 131.465 24.5573 131.286 24.1184C130.971 23.2543 130.806 22.2394 130.998 21.1696C131.081 20.6347 131.245 20.0998 131.492 19.5786C131.739 19.0575 132.082 18.5637 132.507 18.1248L132.672 17.9602L132.713 17.9191C132.713 17.9191 132.781 17.8505 132.781 17.8642L132.864 17.7956C132.973 17.6996 133.083 17.6174 133.193 17.5213C133.412 17.343 133.618 17.151 133.892 16.9727C134.153 16.7944 134.413 16.6024 134.688 16.4378C134.962 16.287 135.25 16.1361 135.524 15.9715C136.69 15.3955 138.02 14.9977 139.433 14.8469C140.846 14.696 142.368 14.792 143.863 15.2172C145.358 15.6286 146.839 16.3693 148.156 17.4391C148.499 17.6859 148.787 18.0014 149.102 18.3031L149.336 18.5226L149.555 18.7694L149.939 19.222C150.2 19.5101 150.46 19.853 150.721 20.2095C150.858 20.3878 150.981 20.5524 151.119 20.7307C151.242 20.909 151.352 21.0873 151.475 21.2656C152.435 22.692 153.258 24.2693 153.916 25.97C155.233 29.3576 155.878 33.2253 155.562 37.2302C155.247 41.2351 153.848 45.4319 151.105 48.943C149.733 50.6849 148.033 52.2347 146.099 53.4691C144.179 54.7172 142.025 55.6361 139.79 56.267L138.953 56.5002L138.843 56.5276C138.843 56.5276 138.843 56.5276 138.679 56.5687L138.473 56.6099L138.075 56.6922C137.54 56.8019 137.006 56.9116 136.457 57.0213C135.881 57.1174 135.291 57.1859 134.701 57.2682L133.81 57.3917L132.946 57.4602C132.37 57.5014 131.78 57.5562 131.204 57.5837C130.628 57.5974 130.038 57.6111 129.448 57.6248C129.16 57.6248 128.859 57.6385 128.571 57.6385L127.693 57.6111C127.103 57.5974 126.527 57.57 125.937 57.5562C121.247 57.2682 116.529 56.555 111.824 55.4989C107.134 54.4292 102.443 53.0851 97.7661 51.6038C93.0892 50.1088 88.4123 48.4219 83.7354 46.7212C79.0585 45.0067 74.3816 43.2101 69.6498 41.5642C67.2908 40.7413 64.918 39.9458 62.5316 39.2463C61.3383 38.9035 60.1451 38.588 58.9382 38.3274L58.033 38.1354L57.8272 38.0943L57.5941 38.0531L57.1278 37.9708L56.1951 37.8062C55.8797 37.7514 55.5916 37.7239 55.2899 37.6691C52.8623 37.3262 50.3798 37.1205 47.9385 37.2028C46.7179 37.2302 45.4972 37.3399 44.2903 37.5045C43.0833 37.6828 41.9038 37.9571 40.7517 38.3137C38.4476 39.0269 36.2943 40.179 34.5661 41.8111C32.8243 43.4295 31.5762 45.5417 30.9042 47.8321C30.2184 50.1226 30.1498 52.5776 30.5064 54.9503C30.8767 57.3231 31.6859 59.6135 32.8792 61.6845C34.0724 63.7418 35.6634 65.5797 37.5423 66.9786C39.4213 68.3776 41.6295 69.3102 43.9337 69.5845L44.3588 69.6394C44.4686 69.6531 44.6469 69.6531 44.784 69.6668C44.9349 69.6668 45.0857 69.6805 45.2229 69.6805H45.6344C46.1967 69.6394 46.759 69.5434 47.3076 69.4062C48.3911 69.1182 49.4198 68.597 50.2427 67.8564C51.0656 67.1295 51.7102 66.1969 52.0805 65.1682C52.4646 64.1396 52.6017 63.0423 52.5606 61.9588C52.5194 60.8753 52.2588 59.8055 51.8885 58.7906C51.5045 57.7757 51.0245 56.8019 50.4621 55.883C49.3238 54.0451 47.8837 52.4267 46.3475 50.9729C45.9635 50.6026 45.5658 50.2597 45.168 49.9031C44.7566 49.5602 44.3451 49.2174 43.9474 48.8745C43.5359 48.5179 43.1245 48.2024 42.713 47.887C42.3015 47.5715 41.9038 47.2423 41.4786 46.9406C39.8191 45.6925 38.1321 44.5404 36.4177 43.5392C33.0026 41.4956 29.464 39.9595 25.9529 39.0955C22.4555 38.2177 18.9581 37.9982 15.7762 38.6017C12.5942 39.1915 9.75519 40.5219 7.53331 42.3323C6.42238 43.2375 5.47602 44.2661 4.68053 45.3359C3.89876 46.4194 3.26786 47.5578 2.81526 48.7099C1.89633 51.0278 1.66317 53.3731 1.89633 55.4304C2.00605 56.4727 2.25293 57.4328 2.55467 58.3243C2.8564 59.2158 3.213 60.025 3.62446 60.7382C4.43366 62.1783 5.33887 63.3029 6.14807 64.1396C6.95727 64.9762 7.62932 65.5797 8.09564 65.9637C8.57567 66.3477 8.82255 66.5398 8.82255 66.5398C8.89112 66.5946 8.90484 66.7043 8.84998 66.7729C8.79512 66.8415 8.71283 66.8552 8.64425 66.8141C8.64425 66.8141 8.36994 66.6495 7.84876 66.3203C7.32758 65.9911 6.55953 65.4837 5.62689 64.7019C4.70797 63.9201 3.62446 62.864 2.62324 61.3828C2.11578 60.6422 1.63574 59.8055 1.22428 58.8592C0.812826 57.9128 0.45623 56.8568 0.250501 55.7047C-0.174673 53.4142 -0.106097 50.7123 0.826542 48.0104C1.27915 46.6663 1.92376 45.3085 2.77411 44.0193C3.62446 42.73 4.69425 41.5231 5.92862 40.4396C8.41109 38.2726 11.6479 36.613 15.2687 35.9272C18.8758 35.2003 22.8258 35.3786 26.6524 36.3799C30.4927 37.3811 34.2232 39.1778 37.7344 41.4682C41.2318 43.7861 44.5097 46.5977 47.5545 49.7934C49.0632 51.4255 50.4484 53.2359 51.5594 55.2521C52.6566 57.2682 53.4521 59.545 53.4932 61.9451C53.5069 63.1384 53.3149 64.359 52.8486 65.4837C52.396 66.6083 51.6416 67.6233 50.7227 68.4187C49.8038 69.2279 48.6654 69.7628 47.4859 70.092C46.8962 70.2292 46.2927 70.3389 45.6755 70.3663H45.2092C45.0583 70.38 44.9074 70.3663 44.7703 70.3663C44.6194 70.3663 44.496 70.3663 44.3177 70.3389L43.8651 70.2977C41.4375 70.0371 39.0922 69.0771 37.1035 67.6232C35.101 66.1831 33.4278 64.2767 32.1385 62.1508C30.8493 60.025 29.9304 57.6385 29.4778 55.1424C29.0252 52.6462 29.0526 50.0403 29.6972 47.5166C30.3281 45.0068 31.6311 42.6203 33.5101 40.755C35.3753 38.876 37.7069 37.5045 40.1757 36.6267C41.4101 36.1878 42.6856 35.845 43.9611 35.5981C45.2503 35.3649 46.5396 35.1866 47.8425 35.1043C50.4484 34.9123 53.0269 35.022 55.6191 35.2826C56.2774 35.3375 56.9083 35.4198 57.5255 35.5021L57.9918 35.5569L58.225 35.5844L58.4856 35.6255L59.4456 35.7901C60.7349 36.0095 61.983 36.2976 63.2311 36.5993C65.7272 37.2165 68.1686 37.9297 70.5962 38.6703C75.424 40.2064 80.1831 41.8248 84.8875 43.4432C89.5918 45.0616 94.255 46.6114 98.8771 48.0378C103.499 49.4779 108.107 50.7397 112.661 51.741C117.214 52.7559 121.727 53.4965 126.143 53.7845C126.692 53.812 127.24 53.8257 127.789 53.8531C128.337 53.8806 128.886 53.8942 129.421 53.8805C129.97 53.8805 130.505 53.8805 131.039 53.8805C131.574 53.8531 132.109 53.8257 132.644 53.7982L133.44 53.7571L134.208 53.6748C134.715 53.62 135.236 53.5514 135.744 53.4965C136.279 53.4005 136.827 53.3045 137.362 53.1948L137.76 53.1262L137.966 53.0851C137.883 53.0988 137.993 53.0851 137.993 53.0851L138.089 53.0576L138.83 52.8656C140.777 52.3582 142.615 51.6038 144.275 50.6026C145.92 49.6014 147.388 48.367 148.581 46.9269C150.968 44.0467 152.284 40.467 152.696 36.9422C153.107 33.4036 152.641 29.9062 151.571 26.8066C151.036 25.2568 150.351 23.8029 149.555 22.4726L149.253 21.9788L148.938 21.5125C148.732 21.2108 148.526 20.909 148.266 20.5936L147.895 20.1272L147.731 19.9215L147.553 19.7295C147.306 19.4826 147.086 19.1946 146.812 18.9889C144.741 17.0962 142.012 16.2733 139.543 16.4104C138.308 16.479 137.129 16.767 136.073 17.2059C135.812 17.3293 135.565 17.4528 135.305 17.5762C135.058 17.6996 134.839 17.8505 134.605 17.9877C134.372 18.1111 134.153 18.3031 133.92 18.4677C133.81 18.55 133.7 18.6323 133.577 18.7283L133.494 18.7969C133.494 18.7969 133.494 18.7969 133.481 18.7969L133.453 18.8243L133.316 18.9477C132.96 19.2769 132.644 19.6609 132.425 20.0724C132.191 20.4838 132.013 20.909 131.917 21.3479C131.698 22.2257 131.766 23.1035 131.986 23.8578C132.109 24.2281 132.26 24.5984 132.452 24.9002C132.493 24.9825 132.548 25.051 132.589 25.1333C132.644 25.2156 132.699 25.2842 132.754 25.3665C132.809 25.4351 132.877 25.5311 132.918 25.5722C132.973 25.6271 133.028 25.6819 133.097 25.7368C133.563 26.1894 134.166 26.3814 134.701 26.3677C134.77 26.3677 134.839 26.3677 134.907 26.3677L135.099 26.3265C135.223 26.2991 135.346 26.2854 135.456 26.2306C135.565 26.1894 135.675 26.1482 135.771 26.1071C135.867 26.0385 135.977 25.9699 136.059 25.9151C136.402 25.6956 136.553 25.3528 136.567 25.0785C136.594 24.7904 136.498 24.5984 136.443 24.4613L136.32 24.2693C136.32 24.2693 136.32 24.187 136.333 24.1733C136.361 24.1595 136.402 24.1733 136.43 24.187L136.416 24.2281Z" fill="#3D861C"/>
<path d="M7.76289 32.8587C6.42666 32.8587 5.41901 32.6396 4.73995 32.2015C4.06088 31.7634 3.71039 31.0405 3.68849 30.0329C3.68849 29.8138 3.80897 29.7043 4.04993 29.7043C4.24708 29.7043 4.5428 29.759 4.93709 29.8686C5.3533 29.9562 6.13094 30 7.27002 30C9.19769 30 10.972 29.8029 12.593 29.4086C14.214 28.9924 15.616 28.4447 16.7989 27.7657C18.0036 27.0647 18.9346 26.287 19.5918 25.4327C20.2489 24.5565 20.5775 23.6474 20.5775 22.7055C20.5775 21.8512 20.3147 21.1721 19.7889 20.6683C19.2851 20.1426 18.606 19.7483 17.7517 19.4854C16.9193 19.2007 15.9993 19.0145 14.9917 18.9268C14.0059 18.8392 13.0311 18.7954 12.0673 18.7954C11.6511 18.7954 11.2349 18.8064 10.8187 18.8283C10.4025 18.8283 10.0082 18.8283 9.6358 18.8283C9.15388 20.4931 8.68291 22.2126 8.2229 23.987C7.76289 25.7613 7.28097 27.5028 6.77715 29.2114C6.11998 29.2114 5.55044 29.0362 5.06853 28.6857C4.58661 28.3352 4.34565 27.908 4.34565 27.4042C4.34565 27.2071 4.37851 26.9552 4.44422 26.6485C4.53185 26.3199 4.65232 25.9366 4.80566 25.4984C4.93709 25.0822 5.15615 24.3922 5.46282 23.4284C5.7914 22.4646 6.17475 21.3255 6.61286 20.0112C7.05096 18.6968 7.53288 17.3168 8.05861 15.871C8.60624 14.4034 9.16483 12.9686 9.73437 11.5666C10.3258 10.1647 10.9063 8.90513 11.4758 7.78796C10.5996 7.98511 9.87675 8.21511 9.30722 8.47798C8.73768 8.74084 8.28862 8.97085 7.96003 9.168C7.63145 9.36515 7.37954 9.46372 7.2043 9.46372C7.07287 9.46372 6.89762 9.38705 6.67857 9.23371C6.48142 9.08037 6.29523 8.90513 6.11998 8.70799C5.96665 8.51084 5.88998 8.33559 5.88998 8.18226C7.07287 7.70034 8.29957 7.27318 9.57008 6.90079C10.8406 6.5284 12.374 6.3422 14.1702 6.3422C14.9588 6.3422 15.8241 6.40792 16.766 6.53935C17.7079 6.64888 18.606 6.88984 19.4604 7.26223C20.3147 7.61272 21.0156 8.1494 21.5633 8.87228C22.1328 9.57325 22.4176 10.5152 22.4176 11.6981C22.4176 12.64 22.2095 13.4614 21.7933 14.1624C21.399 14.8415 20.8623 15.4329 20.1832 15.9368C19.5042 16.4187 18.7594 16.8239 17.9489 17.1525C17.1384 17.4592 16.3388 17.7111 15.5502 17.9082C16.9084 18.0835 18.0365 18.3683 18.9346 18.7625C19.8546 19.1349 20.5775 19.573 21.1033 20.0769C21.6509 20.5807 22.0342 21.1064 22.2533 21.6541C22.4942 22.1798 22.6147 22.6946 22.6147 23.1984C22.6147 24.4908 22.2752 25.6518 21.5961 26.6813C20.9171 27.7109 20.0189 28.609 18.9018 29.3757C17.8065 30.1424 16.5907 30.7776 15.2545 31.2815C13.9402 31.8072 12.6259 32.2015 11.3116 32.4644C9.99723 32.7272 8.81434 32.8587 7.76289 32.8587ZM9.96438 17.5797C11.1911 17.5358 12.3959 17.3935 13.5788 17.1525C14.7617 16.9115 15.8241 16.5611 16.766 16.101C17.7298 15.6191 18.4965 15.0058 19.0661 14.261C19.6356 13.4943 19.9204 12.5524 19.9204 11.4352C19.9204 10.3837 19.6356 9.57325 19.0661 9.00371C18.4965 8.43417 17.7517 8.03987 16.8317 7.82082C15.9117 7.60176 14.9259 7.49224 13.8745 7.49224C13.8526 7.49224 13.8307 7.49224 13.8088 7.49224C13.7869 7.49224 13.765 7.49224 13.7431 7.49224C12.9983 8.9599 12.3192 10.559 11.7059 12.2895C11.0925 13.9981 10.512 15.7615 9.96438 17.5797ZM26.3405 30.9857C25.3767 30.9857 24.6538 30.701 24.1719 30.1314C23.69 29.5619 23.449 28.8719 23.449 28.0614C23.449 27.5576 23.5366 26.9223 23.7119 26.1556C23.8871 25.3889 24.1281 24.5894 24.4348 23.757C24.7633 22.9027 25.1357 22.1031 25.5519 21.3583C25.9681 20.6136 26.4172 20.0112 26.8991 19.5511C27.381 19.0692 27.8629 18.8283 28.3449 18.8283C28.6077 18.8283 28.8377 18.9159 29.0349 19.0911C29.232 19.2445 29.3306 19.4745 29.3306 19.7811C29.3306 20.0659 29.1554 20.4931 28.8049 21.0626C28.4763 21.6322 28.082 22.2893 27.622 23.0341C27.1839 23.7789 26.7896 24.5565 26.4391 25.367C26.1105 26.1556 25.9462 26.9113 25.9462 27.6342C25.9462 28.3352 26.0667 28.8062 26.3077 29.0471C26.5705 29.2662 26.9429 29.3757 27.4248 29.3757C28.1696 29.3757 28.9801 29.0033 29.8563 28.2585C30.7325 27.5137 31.6416 26.2104 32.5835 24.3484L33.0764 24.8741C32.3097 26.8018 31.3349 28.3023 30.1521 29.3757C28.9692 30.4491 27.6987 30.9857 26.3405 30.9857ZM30.2178 16.1668C29.8016 16.1668 29.4182 16.0682 29.0677 15.871C28.7392 15.652 28.5749 15.3234 28.5749 14.8853C28.5749 14.3596 28.8596 13.9105 29.4292 13.5381C29.9987 13.1657 30.5902 12.9795 31.2035 12.9795C31.5978 12.9795 31.9264 13.0672 32.1893 13.2424C32.474 13.4176 32.6164 13.7353 32.6164 14.1953C32.6164 14.6553 32.3645 15.1044 31.8607 15.5425C31.3568 15.9587 30.8092 16.1668 30.2178 16.1668ZM33.9025 31.0515C32.9167 31.0515 32.2377 30.7229 31.8653 30.0657C31.5148 29.4305 31.3396 28.7295 31.3396 27.9628C31.3396 27.2618 31.4491 26.5499 31.6681 25.827C31.8872 25.0822 32.1829 24.3922 32.5553 23.757C32.9496 23.1217 33.3768 22.6179 33.8368 22.2455C34.3187 21.8512 34.8006 21.6541 35.2825 21.6541C35.4359 21.6541 35.6111 21.6869 35.8083 21.7526C36.0273 21.7964 36.1806 21.8731 36.2683 21.9826C36.0054 22.3112 35.7316 22.7165 35.4468 23.1984C35.184 23.6803 34.932 24.1951 34.6911 24.7427C34.472 25.2684 34.2968 25.8051 34.1654 26.3528C34.0339 26.9004 33.9682 27.4042 33.9682 27.8642C33.9682 28.3023 34.0449 28.6638 34.1982 28.9485C34.3735 29.2333 34.6692 29.3757 35.0854 29.3757C35.5016 29.3757 35.9945 29.1457 36.564 28.6857C37.1554 28.2038 37.714 27.6561 38.2398 27.0428C37.5388 26.4075 37.035 25.7175 36.7283 24.9727C36.4216 24.206 36.2683 23.286 36.2683 22.2126C36.2683 21.7526 36.3778 21.2269 36.5968 20.6355C36.8378 20.044 37.2102 19.5292 37.714 19.0911C38.2398 18.653 38.9407 18.434 39.8169 18.434C40.7589 18.434 41.416 18.6968 41.7884 19.2226C42.1827 19.7483 42.3799 20.3726 42.3799 21.0955C42.3799 21.906 42.1608 22.815 41.7227 23.8227C41.3065 24.8303 40.8027 25.7832 40.2112 26.6813C40.4741 26.8128 40.7808 26.8785 41.1313 26.8785C41.4598 26.8785 41.8541 26.8018 42.3142 26.6485C42.7742 26.4951 43.2232 26.2432 43.6613 25.8927C44.0994 25.5204 44.4499 25.0275 44.7128 24.4141L45.3042 24.8413C44.8223 25.9585 44.1761 26.7799 43.3656 27.3056C42.577 27.8095 41.7994 28.0614 41.0327 28.0614C40.7479 28.0614 40.4631 28.0395 40.1784 27.9957C39.8936 27.9299 39.6307 27.8533 39.3898 27.7657C38.645 28.6419 37.7907 29.4086 36.8269 30.0657C35.863 30.7229 34.8882 31.0515 33.9025 31.0515ZM39.0941 25.9913C39.6198 25.2246 40.0688 24.4032 40.4412 23.527C40.8136 22.6507 40.9998 21.8403 40.9998 21.0955C40.9998 20.5916 40.9232 20.2302 40.7698 20.0112C40.6165 19.7702 40.3865 19.6497 40.0798 19.6497C39.6636 19.6497 39.2364 19.9454 38.7983 20.5369C38.3602 21.1283 38.1412 21.8731 38.1412 22.7712C38.1412 23.2312 38.2178 23.7898 38.3712 24.447C38.5464 25.1042 38.7874 25.6189 39.0941 25.9913ZM58.3183 32.8587C57.5078 32.8587 56.5988 32.6944 55.5911 32.3658C54.5835 32.0372 53.543 31.6429 52.4696 31.1829C51.4181 30.7229 50.3886 30.2848 49.3809 29.8686C48.8333 30.46 48.2419 30.92 47.6066 31.2486C46.9713 31.5772 46.2923 31.7415 45.5694 31.7415C44.8027 31.7415 44.1456 31.5662 43.5979 31.2157C43.0284 30.8872 42.6012 30.4819 42.3165 30C42.0098 29.5181 41.8564 29.08 41.8564 28.6857C41.8564 28.2476 42.0536 27.8642 42.4479 27.5356C42.8422 27.2071 43.5432 27.0428 44.5508 27.0428C45.1423 27.0428 45.7885 27.1085 46.4894 27.2399C47.2123 27.3495 47.9461 27.5028 48.6909 27.6999C49.1947 26.8237 49.6548 25.7942 50.071 24.6113C50.5091 23.4284 50.9362 22.1907 51.3524 20.8983C51.7686 19.584 52.1848 18.3025 52.601 17.0539C51.5058 16.6815 50.6624 16.1668 50.071 15.5096C49.4795 14.8305 49.1838 14.1515 49.1838 13.4724C49.1838 13.0343 49.2933 12.6071 49.5124 12.1909C49.7314 11.7528 50.0491 11.3914 50.4653 11.1066C50.8815 10.7999 51.3743 10.6466 51.9439 10.6466C51.6591 10.9971 51.4729 11.3914 51.3853 11.8295C51.3196 12.2676 51.2867 12.6181 51.2867 12.881C51.2867 13.6038 51.451 14.2172 51.7796 14.721C52.1082 15.2248 52.5134 15.6191 52.9953 15.9039C53.4115 14.6553 53.8496 13.4614 54.3096 12.3224C54.7916 11.1614 55.3173 10.1428 55.8868 9.26657C56.4783 8.36845 57.1245 7.65653 57.8255 7.1308C58.5483 6.60507 59.3588 6.3422 60.257 6.3422C60.7608 6.3422 61.2865 6.45173 61.8341 6.67079C62.4037 6.86793 62.8856 7.21842 63.2799 7.72224C63.6961 8.22607 63.9042 8.94894 63.9042 9.89087C63.9042 10.6357 63.7399 11.4352 63.4113 12.2895C63.1047 13.1438 62.6118 13.9653 61.9327 14.7539C61.2536 15.5206 60.3774 16.1668 59.3041 16.6925C58.2526 17.1963 56.9711 17.4701 55.4597 17.5139C55.4159 17.5139 55.3611 17.5139 55.2954 17.5139C55.2516 17.5139 55.2078 17.5139 55.164 17.5139C54.7478 18.7845 54.3096 20.0659 53.8496 21.3583C53.3896 22.6507 52.8968 23.8884 52.371 25.0713C51.8453 26.2542 51.2758 27.3056 50.6624 28.2257C51.5167 28.4666 52.4586 28.7404 53.4882 29.0471C54.5397 29.3538 55.5802 29.6167 56.6097 29.8357C57.6612 30.0329 58.5812 30.1314 59.3698 30.1314C59.8955 30.1314 60.3774 30.0767 60.8155 29.9671C61.2756 29.8357 61.7575 29.6495 62.2613 29.4086C61.8232 30.6353 61.2756 31.5115 60.6184 32.0372C59.9831 32.5848 59.2164 32.8587 58.3183 32.8587ZM45.2408 30.5257C45.8104 30.5257 46.2704 30.3943 46.6209 30.1314C46.9713 29.8905 47.3218 29.5838 47.6723 29.2114C46.9933 28.9704 46.358 28.7733 45.7666 28.62C45.1751 28.4447 44.6603 28.3571 44.2222 28.3571C43.806 28.3571 43.5103 28.4338 43.3351 28.5871C43.1379 28.7404 43.0393 28.9266 43.0393 29.1457C43.0393 29.4962 43.2584 29.8138 43.6965 30.0986C44.1346 30.3833 44.6494 30.5257 45.2408 30.5257ZM55.5254 16.4296C56.4892 16.3639 57.3435 16.0572 58.0883 15.5096C58.8331 14.962 59.4684 14.3048 59.9941 13.5381C60.5198 12.7714 60.9141 11.9938 61.177 11.2052C61.4617 10.3947 61.6041 9.69373 61.6041 9.10228C61.6041 8.53274 61.4946 8.1494 61.2756 7.95225C61.0565 7.7332 60.8046 7.62367 60.5198 7.62367C59.8846 7.62367 59.2822 8.02892 58.7126 8.83942C58.1431 9.64991 57.5955 10.7233 57.0697 12.0595C56.5659 13.3738 56.0511 14.8305 55.5254 16.4296ZM66.2258 30.9857C65.262 30.9857 64.5391 30.701 64.0572 30.1314C63.5753 29.5619 63.3343 28.8719 63.3343 28.0614C63.3343 27.5576 63.4219 26.9223 63.5972 26.1556C63.7724 25.3889 64.0134 24.5894 64.3201 23.757C64.6486 22.9027 65.021 22.1031 65.4372 21.3583C65.8534 20.6136 66.3025 20.0112 66.7844 19.5511C67.2663 19.0692 67.7482 18.8283 68.2302 18.8283C68.493 18.8283 68.723 18.9159 68.9202 19.0911C69.1173 19.2445 69.2159 19.4745 69.2159 19.7811C69.2159 20.0659 69.0407 20.4931 68.6902 21.0626C68.3616 21.6322 67.9673 22.2893 67.5073 23.0341C67.0692 23.7789 66.6749 24.5565 66.3244 25.367C65.9958 26.1556 65.8315 26.9113 65.8315 27.6342C65.8315 28.3352 65.952 28.8062 66.193 29.0471C66.4558 29.2662 66.8282 29.3757 67.3101 29.3757C68.0549 29.3757 68.8654 29.0033 69.7416 28.2585C70.6178 27.5137 71.5269 26.2104 72.4689 24.3484L72.9617 24.8741C72.195 26.8018 71.2202 28.3023 70.0374 29.3757C68.8545 30.4491 67.584 30.9857 66.2258 30.9857ZM70.1031 16.1668C69.6869 16.1668 69.3035 16.0682 68.953 15.871C68.6245 15.652 68.4602 15.3234 68.4602 14.8853C68.4602 14.3596 68.7449 13.9105 69.3145 13.5381C69.884 13.1657 70.4755 12.9795 71.0888 12.9795C71.4831 12.9795 71.8117 13.0672 72.0746 13.2424C72.3593 13.4176 72.5017 13.7353 72.5017 14.1953C72.5017 14.6553 72.2498 15.1044 71.746 15.5425C71.2422 15.9587 70.6945 16.1668 70.1031 16.1668ZM71.5863 39.2003C71.3453 39.2003 71.0606 39.1236 70.732 38.9702C70.3815 38.8169 70.0858 38.5102 69.8448 38.0502C69.582 37.6121 69.4505 36.944 69.4505 36.0459C69.4505 35.104 69.6148 33.8663 69.9434 32.3329C70.2501 30.8215 70.6882 29.1457 71.2577 27.3056C71.8054 25.4437 72.4516 23.5379 73.1963 21.5883C73.963 19.6388 74.7735 17.7659 75.6278 15.9696C76.5041 14.1515 77.4022 12.5195 78.3222 11.0738C79.2641 9.62801 80.1951 8.47798 81.1151 7.62367C82.0352 6.76936 82.9223 6.3422 83.7766 6.3422C84.3462 6.3422 84.7186 6.51745 84.8938 6.86793C85.0691 7.19651 85.1567 7.57986 85.1567 8.01797C85.1567 8.9599 84.8938 9.98945 84.3681 11.1066C83.8643 12.2238 83.1852 13.3519 82.3309 14.491C81.4766 15.6082 80.5127 16.6706 79.4394 17.6782C78.3879 18.6859 77.3036 19.5511 76.1864 20.274C76.0988 20.4931 76.0112 20.7121 75.9236 20.9312C75.8359 21.1502 75.7483 21.3693 75.6607 21.5883C75.9017 21.676 76.0879 21.8293 76.2193 22.0484C76.3726 22.2674 76.4602 22.4974 76.4822 22.7384C76.6574 23.6803 76.8326 24.5237 77.0079 25.2684C77.1831 25.9913 77.446 26.5609 77.7965 26.9771C78.1689 27.3933 78.6946 27.6014 79.3737 27.6014C80.1404 27.6014 80.8194 27.3166 81.4109 26.7471C82.0023 26.1775 82.6047 25.378 83.2181 24.3484L83.9409 24.8741C83.24 26.2761 82.4514 27.3056 81.5752 27.9628C80.6989 28.5981 79.9103 28.9157 79.2094 28.9157C78.837 28.9157 78.4427 28.839 78.0265 28.6857C77.6322 28.5323 77.2488 28.3133 76.8765 28.0285C76.8545 29.3866 76.6903 30.7229 76.3836 32.0372C76.0988 33.3734 75.7045 34.5782 75.2007 35.6516C74.6969 36.7249 74.1273 37.5793 73.4921 38.2145C72.8787 38.8717 72.2435 39.2003 71.5863 39.2003ZM72.5063 37.1631C72.7473 37.1631 72.9992 36.955 73.2621 36.5388C73.5468 36.1225 73.8207 35.5749 74.0835 34.8958C74.3464 34.2168 74.5873 33.461 74.8064 32.6286C75.0254 31.8181 75.2007 31.0076 75.3321 30.1971C75.4636 29.4086 75.5293 28.6857 75.5293 28.0285C75.5293 27.3933 75.4526 26.8347 75.2993 26.3528C75.1678 25.8489 74.9269 25.2903 74.5764 24.677C74.0726 26.1885 73.6235 27.6452 73.2292 29.0471C72.8349 30.4491 72.5282 31.7196 72.3092 32.8587C72.0901 34.0196 71.9806 34.9835 71.9806 35.7502C71.9806 36.6921 72.1558 37.1631 72.5063 37.1631ZM77.1393 17.974C78.4755 16.7253 79.6146 15.5096 80.5566 14.3267C81.4985 13.1438 82.2104 12.1033 82.6923 11.2052C83.1961 10.2852 83.4481 9.63896 83.4481 9.26657C83.4481 9.09133 83.3604 9.00371 83.1852 9.00371C82.6595 9.00371 82.0571 9.40896 81.378 10.2195C80.6989 11.008 79.998 12.0814 79.2751 13.4395C78.5522 14.7977 77.8403 16.3091 77.1393 17.974ZM86.2764 31.4458C84.8745 31.4458 83.7902 31.0624 83.0235 30.2957C82.2787 29.5509 81.9063 28.609 81.9063 27.4699C81.9063 26.5061 82.1473 25.4875 82.6292 24.4141C83.133 23.3189 83.8011 22.3003 84.6335 21.3583C85.4659 20.3945 86.3859 19.6169 87.3936 19.0254C88.4012 18.434 89.4089 18.1382 90.4165 18.1382C90.9861 18.1382 91.5228 18.2916 92.0266 18.5983C92.5523 18.883 92.8152 19.4635 92.8152 20.3397C92.8152 21.1721 92.5742 21.9498 92.0923 22.6727C91.6104 23.3955 90.9642 24.0417 90.1537 24.6113C89.3432 25.1808 88.4451 25.6518 87.4593 26.0242C86.4955 26.3747 85.5207 26.6047 84.5349 26.7142C84.513 26.8018 84.4911 26.9004 84.4692 27.0099C84.4692 27.0975 84.4692 27.2509 84.4692 27.4699C84.4692 27.5795 84.4802 27.7766 84.5021 28.0614C84.5459 28.3242 84.6445 28.609 84.7978 28.9157C84.9511 29.2224 85.2031 29.4852 85.5535 29.7043C85.904 29.9233 86.386 30.0329 86.9993 30.0329C87.9193 30.0329 88.8394 29.7809 89.7594 29.2771C90.7013 28.7514 91.5775 28.0614 92.388 27.2071C93.2204 26.3528 93.9104 25.3999 94.4581 24.3484L95.1152 24.8741C94.5238 26.1885 93.7571 27.3385 92.8152 28.3242C91.8951 29.31 90.8656 30.0767 89.7265 30.6243C88.6093 31.1719 87.4593 31.4458 86.2764 31.4458ZM84.8964 25.4984C85.4659 25.4327 86.1012 25.2356 86.8022 24.907C87.5031 24.5784 88.1712 24.1622 88.8065 23.6584C89.4637 23.1546 90.0003 22.6069 90.4165 22.0155C90.8327 21.4021 91.0408 20.7888 91.0408 20.1754C91.0408 19.9345 90.997 19.7702 90.9094 19.6826C90.8218 19.595 90.6794 19.5511 90.4823 19.5511C89.9784 19.5511 89.4527 19.7373 88.9051 20.1097C88.3574 20.4602 87.8208 20.9312 87.295 21.5226C86.7693 22.0922 86.2983 22.7274 85.8821 23.4284C85.4659 24.1294 85.1373 24.8194 84.8964 25.4984ZM100.531 32.8587C99.129 32.8587 97.9023 32.5739 96.8508 32.0043C95.7993 31.4567 94.9779 30.7229 94.3865 29.8029C93.8169 28.8609 93.5321 27.8204 93.5321 26.6813C93.5321 25.7175 93.7402 24.7646 94.1564 23.8227C94.5726 22.8808 95.1531 22.0264 95.8979 21.2598C96.6646 20.4712 97.5518 19.814 98.5594 19.2883C99.589 18.7406 100.706 18.3792 101.911 18.204C101.122 17.503 100.531 16.7253 100.137 15.871C99.7423 15.0167 99.5452 14.1405 99.5452 13.2424C99.5452 12.0814 99.8409 10.9752 100.432 9.92373C101.024 8.87227 101.856 8.01797 102.93 7.3608C104.003 6.70364 105.252 6.37506 106.675 6.37506C108.012 6.37506 109.041 6.70364 109.764 7.3608C110.487 7.99606 110.848 8.92704 110.848 10.1537C110.848 11.008 110.695 11.8295 110.388 12.6181C110.082 13.3848 109.709 14.0091 109.271 14.491C108.855 14.9729 108.439 15.2139 108.023 15.2139C107.716 15.2139 107.42 15.0824 107.135 14.8196C106.873 14.5348 106.643 14.2172 106.445 13.8667C107.256 13.2095 107.935 12.5086 108.483 11.7638C109.052 11.019 109.337 10.2523 109.337 9.46372C109.337 8.80656 109.118 8.31369 108.68 7.98511C108.242 7.63462 107.672 7.45938 106.971 7.45938C105.985 7.45938 105.153 7.76605 104.474 8.3794C103.817 8.97085 103.313 9.73754 102.962 10.6795C102.634 11.5995 102.47 12.5524 102.47 13.5381C102.47 14.48 102.645 15.4329 102.995 16.3968C103.346 17.3387 103.981 18.1601 104.901 18.8611C103.324 19.1021 101.955 19.6497 100.794 20.504C99.6328 21.3364 98.7347 22.3112 98.0994 23.4284C97.4642 24.5456 97.1465 25.6518 97.1465 26.7471C97.1465 27.4042 97.278 28.0942 97.5408 28.8171C97.8256 29.54 98.2747 30.1424 98.888 30.6243C99.5233 31.1281 100.367 31.38 101.418 31.38C102.623 31.38 103.806 31.0405 104.967 30.3614C106.128 29.7043 107.19 28.8281 108.154 27.7328C109.14 26.6375 109.928 25.4765 110.52 24.2498L111.407 24.8084C110.596 26.3199 109.644 27.689 108.548 28.9157C107.453 30.1205 106.237 31.0734 104.901 31.7743C103.565 32.4972 102.108 32.8587 100.531 32.8587ZM112.269 30.9857C111.524 30.9857 110.911 30.6462 110.429 29.9671C109.969 29.2662 109.739 28.4666 109.739 27.5685C109.739 26.9552 109.837 26.2323 110.035 25.3999C110.232 24.5675 110.484 23.757 110.79 22.9684C111.119 22.1798 111.447 21.5226 111.776 20.9969C112.127 20.4712 112.444 20.2083 112.729 20.2083C112.882 20.2083 113.112 20.2959 113.419 20.4712C113.748 20.6245 114.032 20.8217 114.273 21.0626C114.032 21.4131 113.737 21.9498 113.386 22.6727C113.058 23.3955 112.762 24.1732 112.499 25.0056C112.236 25.838 112.105 26.5937 112.105 27.2728C112.105 27.3604 112.116 27.5685 112.138 27.8971C112.181 28.2257 112.269 28.5323 112.4 28.8171C112.532 29.1019 112.762 29.2443 113.09 29.2443C113.463 29.2443 113.857 29.0471 114.273 28.6528C114.711 28.2366 115.149 27.7109 115.588 27.0756C116.048 26.4185 116.486 25.7175 116.902 24.9727C117.34 24.2279 117.723 23.5051 118.052 22.8041C118.402 22.1031 118.687 21.5117 118.906 21.0298C119.103 21.0517 119.355 21.1064 119.662 21.194C119.991 21.2817 120.275 21.4021 120.516 21.5555C120.757 21.6869 120.878 21.8841 120.878 22.1469C120.878 22.2126 120.768 22.4865 120.549 22.9684C120.352 23.4284 120.111 23.987 119.826 24.6441C119.563 25.3013 119.322 25.9804 119.103 26.6813C118.906 27.3604 118.808 27.9628 118.808 28.4885C118.808 28.7952 118.862 29.069 118.972 29.31C119.103 29.529 119.344 29.6386 119.695 29.6386C120.155 29.6386 120.702 29.4305 121.338 29.0143C121.973 28.5981 122.63 27.9957 123.309 27.2071C123.988 26.4185 124.591 25.4765 125.116 24.3813L125.609 24.7756C125.127 25.9585 124.503 27.0209 123.736 27.9628C122.97 28.9047 122.148 29.6386 121.272 30.1643C120.396 30.7119 119.542 30.9857 118.709 30.9857C118.074 30.9857 117.592 30.8324 117.263 30.5257C116.957 30.241 116.749 29.8686 116.639 29.4086C116.53 28.9266 116.464 28.4447 116.442 27.9628C116.442 27.8533 116.442 27.7437 116.442 27.6342C116.442 27.5028 116.442 27.3933 116.442 27.3056C116.07 27.8971 115.664 28.4776 115.226 29.0471C114.788 29.5948 114.317 30.0548 113.813 30.4272C113.331 30.7995 112.817 30.9857 112.269 30.9857Z" fill="#2D264B"/>
</svg>
