<svg width="50" height="50" viewBox="0 0 50 50" fill="none" xmlns="http://www.w3.org/2000/svg">
<circle opacity="0.2" cx="25" cy="25" r="25" fill="#2D264B"/>
<path d="M21.0186 15.7444C19.9384 14.7519 18.278 14.7519 17.1977 15.7444C17.1535 15.7851 17.1063 15.8323 17.0449 15.8937L16.1235 16.8152C15.1962 17.7424 14.8069 19.0792 15.0914 20.3593C16.7054 27.6223 22.3777 33.2946 29.6407 34.9086C30.9208 35.1931 32.2576 34.8038 33.1848 33.8765L34.1062 32.9551C34.1676 32.8938 34.2149 32.8465 34.2556 32.8023C35.2481 31.722 35.2481 30.0616 34.2556 28.9814C34.2149 28.9372 34.1676 28.8899 34.1062 28.8285L32.5977 27.32C31.5503 26.2726 29.9686 25.973 28.6108 26.5649C27.8334 26.9038 26.9279 26.7323 26.3283 26.1327L23.8673 23.6717C23.2677 23.0721 23.0962 22.1666 23.4351 21.3892C24.027 20.0314 23.7274 18.4497 22.68 17.4023L21.1714 15.8937C21.1101 15.8323 21.0628 15.7851 21.0186 15.7444Z" fill="#2D264B"/>
</svg>
