<svg width="107" height="53" viewBox="0 0 107 53" fill="none" xmlns="http://www.w3.org/2000/svg">
<path d="M106.881 11.2796C106.719 10.9909 106.35 10.8907 106.067 11.0575L106.057 11.0594C104.616 11.9813 102.96 12.5316 101.249 12.7368C99.5345 12.953 97.7715 12.8022 96.0421 12.4751C92.5773 11.8169 89.2393 10.4958 85.9657 9.08005C82.6862 7.66029 79.4284 6.16432 76.116 4.76109C72.7974 3.37965 69.3974 2.1115 65.8552 1.26181C64.083 0.844899 62.2802 0.511051 60.4529 0.346718C59.5354 0.257561 58.6272 0.218145 57.684 0.211119C57.2327 0.219238 56.7983 0.208678 56.3339 0.229565C55.8705 0.255427 55.3992 0.267299 54.9376 0.303109C51.258 0.576813 47.5765 1.52065 44.2251 3.25726C42.5587 4.13411 40.9747 5.20145 39.5455 6.46106C38.1408 7.74178 36.8595 9.18464 35.8205 10.7929C34.7646 12.394 33.9502 14.1556 33.376 15.9901C33.086 16.9054 32.8621 17.8442 32.7017 18.7916C32.5335 19.7251 32.5992 20.8615 33.1488 21.5355C33.571 22.0533 34.4107 21.8944 34.8412 21.8027C63.1094 15.6661 75.0955 32.5281 97.723 20.7611C97.0718 21.1006 96.3512 21.8346 95.2956 22.5392C94.1404 23.2885 92.6955 24.1389 90.9535 24.9425C89.2165 25.7451 87.1873 26.4999 84.9225 27.1242C82.6586 27.7535 80.1549 28.2581 77.4851 28.6189C74.8134 28.9698 71.9784 29.1919 69.0385 29.2948C63.1536 29.5014 56.856 29.24 50.5397 28.9616C44.2233 28.6831 37.8685 28.3913 31.8318 28.6112C28.8173 28.7282 25.8801 28.9541 23.0964 29.3932C20.3099 29.8174 17.6741 30.4397 15.2891 31.2722C12.8953 32.0857 10.7592 33.1184 8.97434 34.2392C7.18353 35.356 5.73521 36.542 4.62932 37.6064C4.08511 38.1576 3.61126 38.6182 3.20362 39.1024C3.00181 39.3415 2.81209 39.5628 2.63847 39.7606C2.55509 39.8639 2.46983 39.9573 2.39451 40.0489L2.21755 40.2833C1.76816 40.8732 1.52393 41.1873 1.52393 41.1873C1.49976 41.2228 1.4666 41.2652 1.44243 41.3006C0.615785 42.5081 0.922311 44.1554 2.12983 44.9883C3.33641 45.8162 4.98206 45.51 5.81367 44.3016C5.81367 44.3016 6.03521 43.9763 6.45504 43.3662C6.50741 43.2893 6.5638 43.2066 6.62018 43.1238C6.67443 43.0568 6.72773 42.9849 6.79097 42.9111C6.90658 42.7604 7.0352 42.597 7.17094 42.4167C7.43343 42.0631 7.82658 41.6384 8.22993 41.186C9.07329 40.2845 10.1886 39.2698 11.6152 38.2683C13.0409 37.2618 14.7974 36.2906 16.855 35.4685C18.9088 34.6266 21.2587 33.9347 23.8251 33.4079C26.3886 32.8662 29.1656 32.5006 32.0645 32.2355C32.3534 32.2117 32.6482 32.192 32.942 32.1673L32.9948 32.3377C33.172 32.8657 33.3963 33.4261 33.5962 33.9653C34.0306 35.0372 34.4981 36.0667 35.0402 37.0821C36.1126 39.105 37.4202 41.0111 38.945 42.7319C40.4648 44.4537 42.2048 45.9793 44.0991 47.2592C45.9944 48.5442 48.0308 49.5963 50.151 50.4111C54.3924 52.0455 58.921 52.7498 63.3955 52.7327C67.8789 52.7088 72.326 51.9756 76.5775 50.6715C80.8331 49.3615 84.9031 47.4786 88.6354 45.062C92.3627 42.6463 95.7562 39.691 98.5804 36.256C101.406 32.826 103.653 28.8975 105.084 24.6853C106.527 20.4762 107.132 16.0031 106.97 11.5823C106.968 11.49 106.939 11.3924 106.892 11.3085L106.881 11.2796Z" fill="white" fill-opacity="0.2"/>
</svg>
