<svg width="114" height="95" viewBox="0 0 114 95" fill="none" xmlns="http://www.w3.org/2000/svg">
<path d="M108.95 0.717045C108.61 0.46448 108.127 0.539442 107.882 0.881294L107.871 0.888666C106.66 2.71624 105.005 4.22123 103.108 5.35167C101.212 6.49643 99.0689 7.23798 96.874 7.756C92.4752 8.79041 87.8818 8.98436 83.3149 9.03421C78.739 9.08243 74.1489 9.03034 69.543 9.11499C64.9411 9.2283 60.3025 9.51642 55.7139 10.3674C53.4225 10.8028 51.1383 11.3511 48.913 12.1102C47.7922 12.4837 46.7081 12.9103 45.5998 13.3931C45.0754 13.6375 44.5612 13.8512 44.0281 14.1174C43.4987 14.3888 42.9529 14.648 42.4308 14.9301C38.2628 17.1652 34.4395 20.1843 31.4132 23.9577C29.9155 25.8496 28.6128 27.9212 27.5908 30.1368C26.6086 32.3643 25.8548 34.7171 25.4703 37.137C25.0625 39.5573 25.0205 42.0394 25.2977 44.4818C25.4317 45.7021 25.6556 46.9155 25.9581 48.106C26.2442 49.2842 26.9095 50.5778 27.9021 51.0792C28.6646 51.4644 29.5659 50.8416 30.0225 50.5104C59.9544 28.6264 82.7212 42.0886 103.132 16.5622C102.545 17.2979 102.081 18.5306 101.209 19.9033C100.244 21.38 98.992 23.1257 97.3678 24.9713C95.7488 26.8133 93.763 28.7514 91.4335 30.6597C89.1077 32.5733 86.4366 34.4661 83.4964 36.2774C80.5489 38.0781 77.3435 39.8133 73.9534 41.4637C67.1679 44.7683 59.6566 47.7409 52.1147 50.7033C44.5727 53.6658 36.9787 56.6327 30.0222 60.0318C26.5521 61.7376 23.229 63.5305 20.1959 65.4925C17.1519 67.4385 14.387 69.5376 12.0245 71.7517C9.64204 73.9482 7.67476 76.2666 6.16443 78.5053C4.6451 80.7422 3.56268 82.8817 2.81846 84.7011C2.46639 85.6284 2.14983 86.4132 1.92301 87.191C1.81042 87.5754 1.7028 87.9328 1.60181 88.2542C1.55765 88.4184 1.50615 88.5719 1.46531 88.718L1.37939 89.084C1.15843 90.0072 1.03499 90.5013 1.03499 90.5013C1.02505 90.5554 1.00813 90.6221 0.998189 90.6762C0.655016 92.5172 1.86677 94.2824 3.71217 94.6269C5.55389 94.9662 7.32281 93.7518 7.67132 91.9071C7.67132 91.9071 7.76241 91.4118 7.93831 90.4804C7.95984 90.3633 7.98303 90.2372 8.00621 90.1111C8.0351 90.0047 8.0603 89.8929 8.09617 89.7738C8.15357 89.5376 8.21961 89.2797 8.28529 88.9984C8.40967 88.4486 8.65028 87.7477 8.8885 87.0092C9.40963 85.5169 10.1906 83.7508 11.3431 81.8381C12.4918 79.9201 14.0465 77.871 16.0308 75.8395C18.0004 73.7867 20.3945 71.7552 23.1276 69.8039C25.8497 67.8366 28.9128 65.9639 32.1709 64.1452C32.497 63.9671 32.832 63.7906 33.1634 63.6088L33.3134 63.7803C33.7942 64.3051 34.3471 64.843 34.8602 65.3691C35.9239 66.3953 37.0044 67.3548 38.165 68.2591C40.4681 70.0643 42.9863 71.6108 45.6629 72.8277C48.3342 74.0483 51.1619 74.925 54.0431 75.4345C56.9279 75.9493 59.8577 76.1185 62.7627 75.9669C68.5764 75.6688 74.245 74.1345 79.4767 71.7855C84.7155 69.4238 89.5444 66.2524 93.8488 62.5157C98.1549 58.7699 101.947 54.4515 105.067 49.6852C108.183 44.9227 110.627 39.7033 112.157 34.2199C113.69 28.7419 114.289 22.9822 113.785 17.3156C113.296 11.6469 111.689 6.10558 109.21 1.0249C109.16 0.918052 109.076 0.818987 108.978 0.745305L108.95 0.717045Z" fill="white" fill-opacity="0.2"/>
</svg>
