<svg width="153" height="78" viewBox="0 0 153 78" fill="none" xmlns="http://www.w3.org/2000/svg">
<path d="M152.817 25.8696C152.687 25.5509 152.325 25.4075 152.006 25.5378C149.801 26.534 147.368 26.9689 144.936 26.9082C142.499 26.862 140.076 26.3123 137.747 25.524C133.067 23.9343 128.701 21.4641 124.435 18.8893C120.162 16.3009 115.94 13.6105 111.611 11.0463C107.27 8.51099 102.802 6.11704 98.0518 4.28332C95.674 3.37724 93.2383 2.58046 90.73 2.01413C89.4753 1.72037 88.2244 1.4972 86.9189 1.31237C86.292 1.2398 85.6922 1.14454 85.0449 1.08723C84.3979 1.03698 83.7428 0.965932 83.0966 0.929799C77.9471 0.618421 72.6641 1.24872 67.7051 3.03687C65.2333 3.94115 62.8401 5.1244 60.6256 6.6025C58.4412 8.11437 56.3975 9.87357 54.6591 11.9137C52.8985 13.9339 51.4424 16.2208 50.3056 18.6535C49.7335 19.8665 49.2488 21.1244 48.8502 22.4059C48.4435 23.6667 47.9563 25.0096 49.1279 26.5256C49.4932 27.0015 50.1663 27.1424 50.6951 26.838L50.7708 26.7985C51.6019 26.3221 51.9637 25.8071 52.2537 25.2747C52.388 25.0055 52.4724 24.732 52.5349 24.4454L52.7804 23.611C53.11 22.496 53.512 21.4125 54.0003 20.3527C54.46 19.2873 55.0431 18.279 55.641 17.2841C56.2758 16.3155 56.9321 15.3529 57.684 14.4559C59.1443 12.643 60.8928 11.0554 62.7797 9.6728C64.6736 8.28978 66.7499 7.13769 68.9382 6.22737C73.3298 4.42011 78.1649 3.62268 83.0091 3.65309C83.6177 3.64876 84.2074 3.68792 84.8101 3.70515C85.4132 3.72944 86.0538 3.79419 86.6721 3.83889C87.846 3.94584 89.079 4.09916 90.2735 4.32536C92.6753 4.75581 95.0525 5.38582 97.3819 6.18122C102.047 7.76458 106.532 9.93817 110.895 12.3449C115.271 14.7296 119.513 17.3906 123.853 19.9117C126.024 21.1758 128.22 22.3961 130.469 23.5356C132.711 24.6826 135.025 25.7266 137.426 26.5394C139.834 27.3448 142.35 27.9107 144.925 28.0133C147.117 28.101 149.337 27.7837 151.431 27.0837C150.251 32.5488 148.305 37.8356 145.584 42.6753C142.697 47.8426 138.931 52.4836 134.585 56.4548C130.232 60.4264 125.297 63.7212 120.011 66.2774C114.732 68.8331 109.102 70.6431 103.358 71.6521C97.6203 72.6537 91.7471 72.8413 86.0488 72.0638C80.3578 71.293 74.8197 69.5441 70.0006 66.6804C67.5877 65.2523 65.3588 63.5595 63.3794 61.6338C61.3929 59.7085 59.6689 57.5284 58.2468 55.1693C56.8176 52.8105 55.6836 50.2802 54.8267 47.6359C54.3951 46.321 54.0456 44.9521 53.7477 43.623C53.6266 42.9498 53.4804 42.3346 53.3641 41.6188L53.3409 41.4501C59.1386 41.9674 65.126 42.7223 71.1417 43.4757C79.9162 44.5838 88.7461 45.6677 97.0922 46.0483C101.266 46.2492 105.308 46.2518 109.136 46.0677C112.962 45.8625 116.571 45.4352 119.858 44.8058C123.144 44.1764 126.101 43.3452 128.649 42.4085C131.198 41.4789 133.33 40.4442 135.036 39.5243C136.734 38.5837 138.014 37.7575 138.867 37.1595L140.163 36.2405C140.163 36.2405 139.697 36.5345 138.821 37.0912C137.944 37.6409 136.625 38.3984 134.894 39.2417C133.154 40.0643 130.994 40.9731 128.438 41.7615C125.882 42.5499 122.93 43.218 119.676 43.6616C116.422 44.1122 112.859 44.3458 109.093 44.3497C105.326 44.3393 101.357 44.1204 97.2645 43.7169C89.0725 42.9103 80.3956 41.3793 71.6961 39.8212C62.9965 38.2631 54.246 36.6794 45.8411 35.863C41.6428 35.4652 37.5312 35.2326 33.5927 35.3236C29.653 35.3933 25.8854 35.7653 22.426 36.4748C18.9582 37.1564 15.8065 38.1892 13.125 39.4091C10.4361 40.6224 8.20882 41.995 6.47861 43.263C5.62207 43.9249 4.87987 44.4745 4.22503 45.0689C3.90094 45.3624 3.59691 45.6336 3.31959 45.875C3.18484 46.0026 3.04933 46.116 2.92795 46.2288C2.82736 46.3333 2.72639 46.4307 2.63916 46.5204C1.9068 47.2534 1.50999 47.6429 1.50999 47.6429C1.46991 47.6875 1.41608 47.7399 1.376 47.7846C0.00607987 49.3023 0.124366 51.6393 1.64249 53.0163C3.16023 54.3862 5.49726 54.268 6.87424 52.7498C6.87424 52.7498 7.24167 52.3407 7.93684 51.5742C8.02369 51.4775 8.11722 51.3734 8.21075 51.2693C8.29836 51.1867 8.38558 51.0971 8.48693 51.0067C8.67513 50.8196 8.88374 50.6172 9.10534 50.393C9.5348 49.9522 10.1585 49.4374 10.8011 48.879C12.1373 47.7878 13.8713 46.5904 16.0342 45.4691C18.1967 44.3407 20.8111 43.3225 23.8148 42.5667C26.817 41.7826 30.2014 41.2613 33.8552 41.0086C37.5077 40.7348 41.4233 40.7442 45.4892 40.9155C45.7374 40.9234 46.0005 40.9447 46.2491 40.9597L46.5864 42.7611C46.7406 43.5245 46.9563 44.3767 47.1406 45.1739C47.5587 46.7656 48.0233 48.2982 48.587 49.8326C49.7133 52.8801 51.1739 55.8248 52.9769 58.5529C54.7728 61.2813 56.9249 63.7854 59.3493 65.9562C61.767 68.1345 64.4513 70.0011 67.2871 71.5269C72.967 74.5992 79.2374 76.2735 85.4925 76.8725C91.7689 77.4703 98.0661 77.0051 104.141 75.6951C110.216 74.3852 116.089 72.2223 121.541 69.3175C126.992 66.4126 132.034 62.7439 136.418 58.4167C140.795 54.0898 144.52 49.0971 147.299 43.6241C150.093 38.1644 151.942 32.2599 152.88 26.2485C152.895 26.1344 152.882 26.0148 152.841 25.9108L152.817 25.8696Z" fill="white" fill-opacity="0.2"/>
</svg>
